HIERARCHY
ROOT Hips
{
 OFFSET 0.000000 0.000000 0.000000
 CHANNELS 6 Xposition Yposition Zposition Yrotation Xrotation Zrotation
 JOINT Chest
 {
  OFFSET 0.000000 9.585900 0.002600
  CHANNELS 3 Yrotation Xrotation Zrotation
  JOINT Chest2
  {
   OFFSET 0.000000 9.601200 -0.005300
   CHANNELS 3 Yrotation Xrotation Zrotation
   JOINT Chest3
   {
    OFFSET 0.000000 9.561800 0.000000
    CHANNELS 3 Yrotation Xrotation Zrotation
    JOINT Chest4
    {
     OFFSET 0.000000 9.552100 0.000000
     CHANNELS 3 Yrotation Xrotation Zrotation
     JOINT Neck
     {
      OFFSET 0.000000 14.453000 0.000000
      CHANNELS 3 Yrotation Xrotation Zrotation
      JOINT Head
      {
       OFFSET 0.000000 8.936500 -0.011300
       CHANNELS 3 Yrotation Xrotation Zrotation
       End Site
       {
        OFFSET 0.000000 17.073600 -0.006000
       }
      }
     }
     JOINT RightCollar
     {
      OFFSET -2.921100 9.558500 0.000000
      CHANNELS 3 Yrotation Xrotation Zrotation
      JOINT RightShoulder
      {
       OFFSET -13.519700 0.000000 0.000000
       CHANNELS 3 Yrotation Xrotation Zrotation
       JOINT RightElbow
       {
        OFFSET 0.000000 -29.696600 0.000000
        CHANNELS 3 Yrotation Xrotation Zrotation
        JOINT RightWrist
        {
         OFFSET 0.000000 -24.004700 0.000000
         CHANNELS 3 Yrotation Xrotation Zrotation
         End Site
         {
          OFFSET 0.000000 -17.728500 0.000000
         }
        }
       }
      }
     }
     JOINT LeftCollar
     {
      OFFSET 2.921100 9.558500 0.000000
      CHANNELS 3 Yrotation Xrotation Zrotation
      JOINT LeftShoulder
      {
       OFFSET 13.519700 0.000000 0.000000
       CHANNELS 3 Yrotation Xrotation Zrotation
       JOINT LeftElbow
       {
        OFFSET 0.000000 -29.696600 0.000000
        CHANNELS 3 Yrotation Xrotation Zrotation
        JOINT LeftWrist
        {
         OFFSET 0.000000 -24.004700 0.000000
         CHANNELS 3 Yrotation Xrotation Zrotation
         End Site
         {
          OFFSET 0.000000 -17.728500 0.000000
         }
        }
       }
      }
     }
    }
   }
  }
 }
 JOINT RightHip
 {
  OFFSET -7.771700 -0.012900 -0.001300
  CHANNELS 3 Yrotation Xrotation Zrotation
  JOINT RightKnee
  {
   OFFSET 0.000000 -40.869800 0.001200
   CHANNELS 3 Yrotation Xrotation Zrotation
   JOINT RightAnkle
   {
    OFFSET 0.000000 -39.717900 0.002100
    CHANNELS 3 Yrotation Xrotation Zrotation
    JOINT RightToe
    {
     OFFSET 0.000000 -4.965400 11.033500
     CHANNELS 3 Yrotation Xrotation Zrotation
     End Site
     {
      OFFSET 0.000000 -1.423100 5.872300
     }
    }
   }
  }
 }
 JOINT LeftHip
 {
  OFFSET 7.771700 -0.012900 -0.001300
  CHANNELS 3 Yrotation Xrotation Zrotation
  JOINT LeftKnee
  {
   OFFSET 0.000000 -40.869800 0.001200
   CHANNELS 3 Yrotation Xrotation Zrotation
   JOINT LeftAnkle
   {
    OFFSET 0.000000 -39.717900 0.002100
    CHANNELS 3 Yrotation Xrotation Zrotation
    JOINT LeftToe
    {
     OFFSET 0.000000 -4.965400 11.033500
     CHANNELS 3 Yrotation Xrotation Zrotation
     End Site
     {
      OFFSET 0.000000 -1.423100 5.872300
     }
    }
   }
  }
 }
}
MOTION
Frames: 11
Frame Time: 0.008333
-3.688836 55.211268 -23.087439 179.746616 -16.182816 -1.451800 0.597944 15.712341 0.314895 0.062287 1.509043 0.050413 0.130127 2.592737 0.088749 0.778063 14.124735 0.566863 0.026521 15.138629 -0.943235 0.193874 -9.923815 -0.933919 -0.396777 -0.425276 1.919757 2.583025 -5.425959 -8.275611 -110.447100 -72.587157 139.710563 -12.539921 -13.879613 3.330604 -6.089614 -1.735626 3.184862 2.659196 -9.260335 7.210963 67.495836 -56.726105 -107.263039 5.771540 -6.251804 1.587941 0.632858 -58.805001 12.026938 -143.728211 88.954003 -148.096852 -11.546378 -23.517746 14.362323 0.021585 0.172618 -0.250216 10.205991 -55.496514 -5.941827 114.162121 77.363543 112.348911 -6.699087 -23.671302 0.470053 0.075255 0.283040 0.030515
-3.690830 55.210736 -23.087520 179.737199 -16.237580 -1.449980 0.577006 15.692262 0.303667 0.076251 1.545337 0.051476 0.128663 2.590854 0.087466 0.790319 14.152884 0.566959 0.011844 15.108326 -0.920938 0.193909 -9.905798 -0.905234 -0.390049 -0.421983 1.916442 2.623077 -5.449452 -8.312268 -110.464670 -72.640683 139.756821 -12.524723 -13.877564 3.344762 -6.081223 -1.733345 3.170257 2.642886 -9.221061 7.232442 67.476011 -56.714949 -107.251651 5.772394 -6.245170 1.574899 0.623236 -58.748722 12.035847 -143.886115 88.956567 -148.259826 -11.511261 -23.531074 14.345288 0.019473 0.137101 -0.194200 10.216055 -55.445693 -5.929322 114.172579 77.366426 112.360469 -6.703426 -23.659345 0.472125 0.075522 0.273117 0.036274
-3.692856 55.210180 -23.084343 179.726868 -16.275555 -1.451785 0.574193 15.693854 0.301780 0.082673 1.562745 0.052654 0.119993 2.571370 0.084889 0.779118 14.145701 0.562863 0.018020 15.118632 -0.896235 0.195898 -9.882354 -0.879804 -0.361952 -0.384453 1.912480 2.653277 -5.471582 -8.347532 -110.484946 -72.688013 139.815603 -12.505110 -13.880098 3.359226 -6.052102 -1.697256 3.152000 2.624403 -9.187764 7.252923 67.452989 -56.711330 -107.248166 5.779476 -6.236595 1.559670 0.611857 -58.712796 12.060071 -142.735661 88.951217 -147.100429 -11.533655 -23.516759 14.325132 0.014602 0.102423 -0.139119 10.221953 -55.413304 -5.914760 114.181872 77.368389 112.368268 -6.704299 -23.652070 0.478426 0.073384 0.268927 0.037296
-3.695679 55.210473 -23.081161 179.715484 -16.315909 -1.451546 0.572970 15.697631 0.299471 0.089248 1.581555 0.051472 0.119034 2.570117 0.085917 0.744693 14.094785 0.546637 0.040796 15.162907 -0.866837 0.197698 -9.856123 -0.853412 -0.314721 -0.330613 1.911090 2.738736 -5.502608 -8.401240 -110.448110 -72.720591 139.751831 -12.485234 -13.890245 3.376440 -6.010861 -1.633346 3.142417 2.604188 -9.160556 7.269249 67.366022 -56.700638 -107.208656 5.769845 -6.267594 1.575591 0.601031 -58.673176 12.066840 -142.283255 88.950513 -146.658725 -11.431924 -23.500706 14.284909 0.015778 0.058899 -0.098058 10.223261 -55.375950 -5.898732 114.178588 77.368813 112.359253 -6.702060 -23.648624 0.484720 0.067768 0.268435 0.036127
-3.697990 55.211171 -23.076715 179.699685 -16.349878 -1.454842 0.577065 15.695616 0.302872 0.087419 1.579259 0.051943 0.126093 2.588544 0.085785 0.722269 14.063136 0.538107 0.052930 15.194023 -0.840439 0.199029 -9.823995 -0.833534 -0.278875 -0.294660 1.899482 2.776909 -5.509943 -8.413902 -110.463142 -72.766191 139.787910 -12.473758 -13.907110 3.394091 -5.981737 -1.584208 3.135609 2.583600 -9.139962 7.278416 67.381796 -56.699211 -107.221869 5.796853 -6.215976 1.521122 0.583075 -58.639998 12.079285 -140.981231 88.943599 -145.373717 -11.269759 -23.474851 14.236241 -0.007332 0.015253 -0.075216 10.230703 -55.346621 -5.882940 114.172832 77.366157 112.352309 -6.700629 -23.645069 0.492260 0.059693 0.266879 0.032289
-3.695937 55.213556 -23.075563 179.662762 -16.405506 -1.478442 0.608426 15.717399 0.334004 0.089297 1.574688 0.050497 0.110611 2.560653 0.083114 0.725005 14.088953 0.533475 0.061530 15.218082 -0.816451 0.204966 -9.794162 -0.824403 -0.249860 -0.263447 1.890479 2.814937 -5.522651 -8.424864 -110.441243 -72.805258 139.792815 -12.472243 -13.926987 3.405504 -5.955040 -1.548604 3.116746 2.558728 -9.122186 7.300925 67.340075 -56.685897 -107.211720 5.782864 -6.220594 1.513185 0.553044 -58.583481 12.161103 -139.739538 88.949244 -144.125532 -11.288655 -23.423104 14.208465 0.010397 -0.017538 -0.037196 10.237904 -55.297691 -5.825090 114.161130 77.369655 112.352316 -6.696206 -23.622063 0.494824 0.051126 0.244731 0.030893
-3.698369 55.215486 -23.072015 179.646111 -16.444682 -1.480069 0.619353 15.740620 0.338839 0.065370 1.526055 0.049038 0.137452 2.615889 0.083291 0.703849 14.061989 0.525554 0.049086 15.243401 -0.775477 0.230368 -9.752498 -0.828239 -0.222218 -0.229884 1.873077 2.852480 -5.538733 -8.422989 -110.379981 -72.834935 139.762823 -12.472986 -13.948975 3.411714 -5.917394 -1.520666 3.089900 2.520766 -9.104775 7.329327 67.289388 -56.668408 -107.199974 5.771830 -6.227970 1.504037 0.555435 -58.545154 12.196884 -138.096091 88.945746 -142.463250 -11.416112 -23.372013 14.207665 0.035472 -0.026415 -0.007081 10.247805 -55.260973 -5.807847 114.158350 77.370643 112.352682 -6.701677 -23.619849 0.484476 0.057561 0.241989 0.040356
-3.700295 55.217545 -23.068208 179.626471 -16.480974 -1.482183 0.633808 15.761448 0.345544 0.059393 1.510885 0.048538 0.134041 2.613746 0.082092 0.697383 14.061643 0.517984 0.058681 15.276108 -0.757895 0.222281 -9.708407 -0.790496 -0.200384 -0.196500 1.873412 2.892340 -5.552110 -8.432788 -110.330694 -72.847131 139.711260 -12.487218 -13.949817 3.448816 -5.889062 -1.488929 3.081647 2.502641 -9.099406 7.337638 67.256137 -56.655152 -107.191934 5.781902 -6.222253 1.472454 0.547644 -58.506907 12.214134 -136.323384 88.934861 -140.704097 -11.313012 -23.337888 14.181275 0.037535 -0.047790 0.002093 10.251249 -55.227365 -5.785550 114.155469 77.370886 112.350559 -6.704103 -23.618633 0.479478 0.060849 0.240996 0.043572
-3.701403 55.219770 -23.064949 179.616456 -16.518659 -1.489920 0.625470 15.740652 0.350777 0.074133 1.554244 0.048486 0.125347 2.597705 0.082185 0.694728 14.062516 0.509077 0.072091 15.306503 -0.748208 0.208991 -9.669760 -0.753386 -0.187164 -0.164130 1.864076 2.928979 -5.563121 -8.427495 -110.181623 -72.863740 139.621500 -12.486835 -13.983881 3.439322 -5.870218 -1.458834 3.080692 2.488080 -9.094816 7.340218 67.254627 -56.652743 -107.191611 5.814032 -6.208850 1.421631 0.521161 -58.465508 12.224031 -136.189896 88.947038 -140.597652 -11.131347 -23.312168 14.141531 0.017686 -0.077331 0.001623 10.244995 -55.195504 -5.756577 114.166109 77.373673 112.362537 -6.713061 -23.612172 0.479514 0.069249 0.235425 0.044483
-3.700079 55.221707 -23.060957 179.607846 -16.549816 -1.510823 0.635479 15.744280 0.371239 0.073880 1.566714 0.050048 0.119049 2.582639 0.079975 0.696404 14.063992 0.503920 0.069275 15.338109 -0.725759 0.208372 -9.631516 -0.733621 -0.188153 -0.132837 1.846681 2.967139 -5.570913 -8.411600 -109.991478 -72.869666 139.494393 -12.454982 -14.030349 3.400070 -5.852910 -1.426940 3.076931 2.454356 -9.085584 7.340221 67.220212 -56.644226 -107.177336 5.811131 -6.227759 1.404095 0.479215 -58.428517 12.279311 -134.782982 88.949073 -139.193788 -11.121386 -23.278402 14.133495 0.056208 -0.086474 0.008500 10.232641 -55.180616 -5.708821 114.224834 77.379917 112.428887 -6.732664 -23.590103 0.479908 0.087425 0.214986 0.051142
-3.700341 55.223656 -23.057913 179.603450 -16.584329 -1.521980 0.639223 15.753363 0.379578 0.071594 1.545392 0.047462 0.121890 2.602251 0.082722 0.693199 14.063655 0.498283 0.058277 15.379129 -0.689654 0.224889 -9.623931 -0.748707 -0.183311 -0.105089 1.848942 2.982749 -5.572248 -8.409889 -109.814618 -72.866137 139.376045 -12.425608 -14.063873 3.379842 -5.823655 -1.397140 3.064044 2.423909 -9.083394 7.349733 67.123452 -56.597898 -107.171446 5.776733 -6.268736 1.424502 0.453807 -58.388607 12.312986 -133.558796 88.945565 -137.972670 -11.131597 -23.249122 14.135396 -0.019536 -0.100449 0.004226 10.219167 -55.154417 -5.677260 114.241275 77.380673 112.446917 -6.738891 -23.579358 0.476262 0.090328 0.206751 0.055178
